<svg version="1.1" id="Layer_1" xmlns="http://www.w3.org/2000/svg" xmlns:xlink="http://www.w3.org/1999/xlink" x="0px" y="0px"
	 width="100%" viewBox="0 0 300 200" enable-background="new 0 0 300 200" xml:space="preserve">
<path fill="#000000" opacity="1.000000" stroke="none" 
	d="
M201.000000,201.000000 
	C134.000015,201.000000 67.500015,201.000000 1.000018,201.000000 
	C1.000012,134.333344 1.000012,67.666702 1.000006,1.000036 
	C100.999969,1.000024 200.999939,1.000024 300.999939,1.000012 
	C300.999939,67.666634 300.999939,134.333267 300.999969,200.999939 
	C267.833344,201.000000 234.666672,201.000000 201.000000,201.000000 
M197.506378,87.994118 
	C196.448181,93.611397 191.558563,93.670784 187.486572,94.819473 
	C181.567383,96.489243 181.314651,97.031174 185.889435,101.316711 
	C189.624252,104.815399 191.119537,108.535385 189.271927,113.599258 
	C188.772461,114.968155 189.436630,117.192909 190.356430,118.444420 
	C190.745697,118.974052 193.492096,118.449417 194.619507,117.640602 
	C199.396408,114.213539 203.923431,114.553589 208.520798,117.834198 
	C209.037415,118.202843 209.656631,118.462791 210.264648,118.662231 
	C212.895889,119.525337 214.616150,118.238853 213.809799,115.823021 
	C211.602036,109.208549 213.064972,104.173317 218.556793,99.827614 
	C221.361435,97.608284 220.530334,95.374107 216.893295,95.043015 
	C211.208786,94.525528 206.790131,92.406654 204.346924,86.896561 
	C203.703918,85.446404 202.360428,84.306862 201.338608,83.024689 
	C200.207199,84.471382 199.075806,85.918076 197.506378,87.994118 
M62.000011,110.674171 
	C59.929211,103.831429 68.247169,101.968475 69.147881,95.244308 
	C59.705006,95.967003 54.123871,90.470978 50.291370,81.759094 
	C48.980721,83.780006 48.282379,84.630074 47.828255,85.595078 
	C45.484547,90.575386 42.377979,94.182495 36.327442,95.068520 
	C30.576488,95.910652 30.554466,96.848717 34.640648,101.168915 
	C37.581600,104.278290 40.433025,107.272278 38.189110,112.317978 
	C37.479946,113.912605 38.646946,116.341614 38.955318,118.388763 
	C40.732182,118.026192 42.826115,118.142097 44.227741,117.213280 
	C48.826683,114.165680 53.003773,114.654182 57.338795,117.650238 
	C58.520367,118.466858 60.122990,118.674263 62.000011,119.322845 
	C62.000011,116.210304 62.000011,113.897331 62.000011,110.674171 
M265.633667,94.929352 
	C257.788330,94.781860 255.836563,87.880356 251.722656,81.616241 
	C247.866974,90.551094 242.195251,95.923172 232.166611,96.001282 
	C239.452164,102.641983 241.548676,110.259094 239.709549,119.527596 
	C244.438522,117.727150 248.019272,115.292801 251.596329,115.298218 
	C255.296463,115.303818 258.993011,117.677887 263.437805,119.286072 
	C263.669861,117.111412 264.398254,115.351280 263.904114,114.058426 
	C261.478394,107.711967 264.727142,103.678368 268.823761,99.496361 
	C271.489594,96.774963 269.993713,95.062714 265.633667,94.929352 
M107.120918,92.618347 
	C105.776505,90.213440 104.319847,87.863220 103.114944,85.390335 
	C101.457207,81.988091 99.717094,81.913788 98.297737,85.333565 
	C95.943398,91.006081 92.147202,94.490829 85.825584,95.037292 
	C84.536003,95.148766 83.320824,96.120979 82.071350,96.696411 
	C82.814407,98.065063 83.212326,99.965172 84.360123,100.710617 
	C89.400452,103.984055 89.508507,108.812279 88.936493,113.863983 
	C88.500214,117.716949 90.326698,119.661369 93.505852,117.582512 
	C98.907913,114.050117 103.449280,115.303680 108.440887,118.005951 
	C111.790726,119.819427 113.975952,118.390015 112.847969,114.894241 
	C110.757568,108.415756 112.706512,103.864212 117.648491,99.757507 
	C120.086929,97.731209 119.660446,95.765076 116.269249,94.995850 
	C113.449982,94.356369 110.646149,93.648842 107.120918,92.618347 
M146.821869,116.047653 
	C152.381775,113.409729 156.686310,117.254791 162.480347,119.492737 
	C162.662659,116.322639 163.632751,113.379288 162.772598,111.138496 
	C161.490356,107.798096 162.782135,105.916672 164.700272,103.765083 
	C165.998016,102.309402 167.067917,100.652153 168.344879,99.176041 
	C170.850082,96.280113 169.708115,95.209061 166.412216,94.989334 
	C160.679993,94.607185 156.087524,92.612213 154.095551,86.588036 
	C153.628082,85.174355 152.326736,84.036407 150.532272,81.563278 
	C147.359955,90.722336 141.012115,95.024483 132.065887,96.645798 
	C134.531250,99.934944 136.518402,101.970123 137.725906,104.393745 
	C138.676071,106.300812 138.785980,108.672455 139.049194,110.864143 
	C139.374466,113.572212 139.472153,116.307625 139.711502,119.633080 
	C142.646286,118.145226 144.372803,117.269936 146.821869,116.047653 
z"/>
<path fill="#FFC200" opacity="1.000000" stroke="none" 
	d="
M197.725388,87.679443 
	C199.075806,85.918076 200.207199,84.471382 201.338608,83.024689 
	C202.360428,84.306862 203.703918,85.446404 204.346924,86.896561 
	C206.790131,92.406654 211.208786,94.525528 216.893295,95.043015 
	C220.530334,95.374107 221.361435,97.608284 218.556793,99.827614 
	C213.064972,104.173317 211.602036,109.208549 213.809799,115.823021 
	C214.616150,118.238853 212.895889,119.525337 210.264648,118.662231 
	C209.656631,118.462791 209.037415,118.202843 208.520798,117.834198 
	C203.923431,114.553589 199.396408,114.213539 194.619507,117.640602 
	C193.492096,118.449417 190.745697,118.974052 190.356430,118.444420 
	C189.436630,117.192909 188.772461,114.968155 189.271927,113.599258 
	C191.119537,108.535385 189.624252,104.815399 185.889435,101.316711 
	C181.314651,97.031174 181.567383,96.489243 187.486572,94.819473 
	C191.558563,93.670784 196.448181,93.611397 197.725388,87.679443 
z"/>
<path fill="#FFC200" opacity="1.000000" stroke="none" 
	d="
M62.000011,111.129265 
	C62.000011,113.897331 62.000011,116.210304 62.000011,119.322845 
	C60.122990,118.674263 58.520367,118.466858 57.338795,117.650238 
	C53.003773,114.654182 48.826683,114.165680 44.227741,117.213280 
	C42.826115,118.142097 40.732182,118.026192 38.955318,118.388763 
	C38.646946,116.341614 37.479946,113.912605 38.189110,112.317978 
	C40.433025,107.272278 37.581600,104.278290 34.640648,101.168915 
	C30.554466,96.848717 30.576488,95.910652 36.327442,95.068520 
	C42.377979,94.182495 45.484547,90.575386 47.828255,85.595078 
	C48.282379,84.630074 48.980721,83.780006 50.291370,81.759094 
	C54.123871,90.470978 59.705006,95.967003 69.147881,95.244308 
	C68.247169,101.968475 59.929211,103.831429 62.000011,111.129265 
z"/>
<path fill="#FFC200" opacity="1.000000" stroke="none" 
	d="
M266.042847,94.960464 
	C269.993713,95.062714 271.489594,96.774963 268.823761,99.496361 
	C264.727142,103.678368 261.478394,107.711967 263.904114,114.058426 
	C264.398254,115.351280 263.669861,117.111412 263.437805,119.286072 
	C258.993011,117.677887 255.296463,115.303818 251.596329,115.298218 
	C248.019272,115.292801 244.438522,117.727150 239.709549,119.527596 
	C241.548676,110.259094 239.452164,102.641983 232.166611,96.001282 
	C242.195251,95.923172 247.866974,90.551094 251.722656,81.616241 
	C255.836563,87.880356 257.788330,94.781860 266.042847,94.960464 
z"/>
<path fill="#FFC200" opacity="1.000000" stroke="none" 
	d="
M107.478195,92.794907 
	C110.646149,93.648842 113.449982,94.356369 116.269249,94.995850 
	C119.660446,95.765076 120.086929,97.731209 117.648491,99.757507 
	C112.706512,103.864212 110.757568,108.415756 112.847969,114.894241 
	C113.975952,118.390015 111.790726,119.819427 108.440887,118.005951 
	C103.449280,115.303680 98.907913,114.050117 93.505852,117.582512 
	C90.326698,119.661369 88.500214,117.716949 88.936493,113.863983 
	C89.508507,108.812279 89.400452,103.984055 84.360123,100.710617 
	C83.212326,99.965172 82.814407,98.065063 82.071350,96.696411 
	C83.320824,96.120979 84.536003,95.148766 85.825584,95.037292 
	C92.147202,94.490829 95.943398,91.006081 98.297737,85.333565 
	C99.717094,81.913788 101.457207,81.988091 103.114944,85.390335 
	C104.319847,87.863220 105.776505,90.213440 107.478195,92.794907 
z"/>
<path fill="#FFC200" opacity="1.000000" stroke="none" 
	d="
M146.460602,116.221146 
	C144.372803,117.269936 142.646286,118.145226 139.711502,119.633080 
	C139.472153,116.307625 139.374466,113.572212 139.049194,110.864143 
	C138.785980,108.672455 138.676071,106.300812 137.725906,104.393745 
	C136.518402,101.970123 134.531250,99.934944 132.065887,96.645798 
	C141.012115,95.024483 147.359955,90.722336 150.532272,81.563278 
	C152.326736,84.036407 153.628082,85.174355 154.095551,86.588036 
	C156.087524,92.612213 160.679993,94.607185 166.412216,94.989334 
	C169.708115,95.209061 170.850082,96.280113 168.344879,99.176041 
	C167.067917,100.652153 165.998016,102.309402 164.700272,103.765083 
	C162.782135,105.916672 161.490356,107.798096 162.772598,111.138496 
	C163.632751,113.379288 162.662659,116.322639 162.480347,119.492737 
	C156.686310,117.254791 152.381775,113.409729 146.460602,116.221146 
z"/>
</svg>